<?xml version="1.0" standalone="no"?>
<!DOCTYPE svg PUBLIC "-//W3C//DTD SVG 20010904//EN"
 "http://www.w3.org/TR/2001/REC-SVG-20010904/DTD/svg10.dtd">
<svg version="1.0" xmlns="http://www.w3.org/2000/svg"
 width="371.000000pt" height="371.000000pt" viewBox="0 0 371.000000 371.000000"
 preserveAspectRatio="xMidYMid meet">
<metadata>
Created by potrace 1.14, written by Peter Selinger 2001-2017
</metadata>
<g transform="translate(0.000000,371.000000) scale(0.100000,-0.100000)"
fill="#000000" stroke="none">
<path d="M1595 3661 c-28 -46 -38 -152 -21 -228 6 -28 5 -33 -11 -33 -38 0
-89 -21 -122 -50 -19 -17 -54 -39 -77 -50 -46 -20 -65 -44 -114 -145 -43 -90
-57 -158 -65 -324 -3 -69 -9 -107 -17 -113 -28 -18 -97 -12 -163 13 -66 25
-68 24 -49 -13 29 -57 64 -98 85 -98 20 0 20 -1 -2 -32 -17 -23 -24 -50 -27
-96 l-4 -63 26 7 c31 7 68 -19 59 -42 -3 -9 2 -14 17 -14 12 0 54 -20 93 -44
120 -72 144 -83 202 -86 l20 -1 -20 -11 c-149 -85 -387 -351 -444 -498 -8 -19
-22 -42 -32 -50 -10 -8 -32 -62 -49 -118 -17 -57 -39 -122 -50 -145 -57 -125
-72 -255 -40 -336 10 -27 15 -53 10 -61 -12 -23 -21 -88 -21 -145 0 -86 39
-158 105 -192 37 -19 169 -25 192 -9 20 15 11 52 -15 61 -10 3 -27 15 -37 27
-19 21 -19 21 2 10 28 -15 64 -4 64 18 0 10 -6 45 -14 77 -19 74 -26 142 -16
148 4 3 10 -8 13 -23 3 -15 15 -72 27 -127 13 -60 18 -114 15 -135 -9 -45 -42
-109 -60 -117 -23 -8 -18 -20 23 -59 47 -45 149 -103 230 -130 35 -12 67 -26
72 -30 4 -5 1 -24 -6 -42 -12 -26 -20 -32 -46 -32 -40 0 -136 -47 -150 -74
-15 -28 -19 -86 -7 -108 6 -10 38 -32 72 -49 68 -35 120 -43 285 -43 102 -1
104 0 126 27 12 15 31 60 41 100 10 40 24 93 32 119 l14 47 142 -4 c78 -3 148
-5 154 -5 7 0 13 -10 12 -22 0 -13 0 -51 1 -85 0 -34 0 -65 -2 -70 -5 -23 29
-63 66 -79 63 -26 122 -25 296 1 82 12 126 39 165 99 46 73 45 96 -7 140 -46
40 -62 43 -115 21 -50 -21 -110 -20 -121 3 -16 33 -6 46 66 82 83 43 132 85
169 148 25 43 25 44 10 93 -13 39 -14 60 -7 97 16 74 18 94 19 135 2 72 16 36
16 -40 0 -76 1 -78 33 -99 55 -38 115 -23 200 50 38 34 57 146 33 204 -12 28
-11 33 8 53 55 59 76 182 75 434 -1 156 -19 230 -62 251 -13 6 -42 38 -66 70
-91 125 -313 313 -492 418 l-48 28 44 18 c25 9 71 29 104 44 32 14 69 26 81
26 34 0 55 10 55 27 0 8 -16 51 -35 94 -19 44 -35 81 -35 82 0 1 20 1 45 -1
37 -3 53 1 85 23 22 15 37 31 34 36 -2 5 -26 11 -52 15 -77 10 -84 19 -88 126
-8 196 -47 311 -151 440 -110 138 -154 173 -253 203 -3 1 -12 4 -20 7 -32 12
-107 28 -150 32 -25 2 -75 7 -111 11 -60 7 -69 5 -106 -18 -48 -30 -49 -29
-81 53 -25 63 -40 128 -36 153 3 20 -12 32 -21 18z m649 -1390 c4 -5 -1 -8 -9
-7 -21 3 -31 16 -12 16 9 0 18 -4 21 -9z m355 -743 c13 -35 19 -101 11 -123
-5 -14 -10 -4 -15 35 -3 30 -7 60 -7 65 0 6 -4 18 -9 28 -7 11 -6 17 1 17 6 0
14 -10 19 -22z m18 -480 c-3 -7 -5 -2 -5 12 0 14 2 19 5 13 2 -7 2 -19 0 -25z"/>
</g>
</svg>
