<?xml version="1.0" encoding="UTF-8"?><svg id="a" xmlns="http://www.w3.org/2000/svg" xmlns:xlink="http://www.w3.org/1999/xlink" viewBox="0 0 218.56 361.49"><defs><style>.c{fill:url(#b);}.d,.e,.f,.g,.h,.i{fill:none;}.j,.k,.l,.e,.f,.g,.h{stroke-linecap:round;stroke-linejoin:round;}.j,.k,.l,.m,.f{stroke:#4d4d4d;}.j,.l,.m{fill:#fff;}.k{fill:#96592f;}.k,.l,.e,.f,.g,.h{stroke-width:2px;}.n{fill:#ffdab8;}.o{fill:#999;}.p{fill:#d6b79d;}.q{fill:#1f2d68;}.r{fill:#1a1a1a;}.e{stroke:#b3b3b3;}.m,.i{stroke-miterlimit:10;}.g{stroke:#d6b79d;}.h{stroke:#ccc;}.i{stroke:#3a3a3a;}</style><pattern id="b" x="0" y="0" width="170.95" height="170.29" patternTransform="translate(-7323.1 -7103.47) scale(.1)" patternUnits="userSpaceOnUse" viewBox="0 0 170.95 170.29"><g><rect class="d" x="0" width="170.95" height="170.29"/><rect x="0" width="85.47" height="85.47"/><g><polygon points="137.5 0 127.94 0 85.47 42.47 85.47 52.03 137.5 0"/><polygon points="118.39 0 108.83 0 85.47 23.36 85.47 32.91 118.39 0"/><polygon points="156.61 0 147.06 0 85.47 61.58 85.47 71.14 156.61 0"/><polygon points="170.95 0 166.17 0 85.47 80.7 85.47 85.47 90.25 85.47 170.95 4.78 170.95 0"/><polygon points="85.47 4.24 85.47 13.8 99.27 0 89.72 0 85.47 4.24"/><polygon points="170.95 23.89 170.95 14.34 99.81 85.47 109.37 85.47 170.95 23.89"/><polygon points="85.47 0 85.47 0 85.47 0 85.47 0"/><polygon points="170.95 81.23 170.95 71.68 157.15 85.47 166.71 85.47 170.95 81.23"/><polygon points="170.95 43.01 170.95 33.45 118.92 85.47 128.48 85.47 170.95 43.01"/><polygon points="170.95 62.12 170.95 52.56 138.03 85.47 147.59 85.47 170.95 62.12"/></g><g><polygon points="52.68 84.82 43.12 84.82 .65 127.29 .65 136.85 52.68 84.82"/><polygon points="33.57 84.82 24.01 84.82 .65 108.18 .65 117.73 33.57 84.82"/><polygon points="71.79 84.82 62.24 84.82 .65 146.4 .65 155.96 71.79 84.82"/><polygon points="86.13 84.82 81.35 84.82 .65 165.52 .65 170.29 5.43 170.29 86.13 89.6 86.13 84.82"/><polygon points=".65 89.06 .65 98.62 14.45 84.82 4.9 84.82 .65 89.06"/><polygon points="86.13 108.71 86.13 99.16 14.99 170.29 24.55 170.29 86.13 108.71"/><polygon points=".65 84.82 .65 84.82 .65 84.82 .65 84.82"/><polygon points="86.13 166.05 86.13 156.5 72.33 170.29 81.89 170.29 86.13 166.05"/><polygon points="86.13 127.82 86.13 118.27 34.1 170.29 43.66 170.29 86.13 127.82"/><polygon points="86.13 146.94 86.13 137.38 53.21 170.29 62.77 170.29 86.13 146.94"/></g></g></pattern></defs><path class="i" d="M151.53,140.98l-87.21,2.21,8.67-7.28s20.95-.39,32.02-.46c14.1-.09,33.98-.54,33.98-.54l12.55,6.06Z"/><path class="r" d="M209.98,192.23s1.95-.32,1.98-.04-5.06,7.13-11.36,11.77c-6.3,4.64-17.6,7.97-17.6,7.97l1.68,4.54c1.32,3.05-.43,22.17-.29,25.2,.14,3.03,.81,16.8,.81,16.8,0,0,1.09,1.05,7.39,2.1,0,0,7.72,1.13,13.65,1.05,4.2-.35,8.4-10.5,9.45-15.75,.56-2.78,2.44-22.88,1.67-36.13-.69-11.82-3.93-17.05-5.42-17.55"/><path class="n" d="M206.26,261.62s3.72,3.34,3.72,7.34-.38,8.53-1,11c-1,4-11,11-12,11s-5.4,1-7.2,0-6.8-2.6-5.8-5.8,2-1.2,5-2.2,4.06-4.28,4-7,1-6-1-4-1,7-3,9-5,.79-5-.78v-8.3c0-1.92,.11-6.23,1-8.92,1-3,.88-2.72,1.88-3.72,0,0,5.06,1.65,9.27,2.01s10.13,.38,10.13,.38Z"/><path class="n" d="M26.98,263.95s1,11,2,15c.73,2.91,3,8,1,9s-4.37,.67-7-3c-2.12-2.96-.55-8.55-1-9-1-1-1,1-1,1-3,9,5.01,15.83,7,16,2.64,.22,3.71,4.59,1.57,5-1.07,.21-7.57,1-13.57,0s-12-5-14-15.43c-.5-2.58-1-4.57,0-10.57s3-11,3-11c0,0,2.05,.66,3.53,.92s18.47,2.08,18.47,2.08Z"/><path class="r" d="M27.7,263.62c-1.86,1.5-19.04-1.2-24.04-3.2-.62-.25,.06-1.98-.39-2.53-3.19-3.81-2.4-12.26-1.29-18.94,1.27-7.64,4.44-13.34,6.24-17.6,2.24-5.32,6.1-20.57,6.43-21.48s.83-1.24,2.52-1.2c0,0,1.32,1.94,5.66,2.81s10.97,1.11,11.03,.95-2.09,6.99-3.87,8.53c-1.37,1.18-2.05,24.98-2.25,39.36-.02,1.2,.79,6.39,.76,8.45-.02,1.11-.63,1.8-.66,2.69-.04,1.25-.08,2.13-.13,2.17Z"/><path class="m" d="M168.76,151.2c1.45,.97,2.86,2.02,3.68,2.76,5.54,5,21.54,18,27.54,25,3.57,4.17,8.17,10.51,10.89,14.83,0,0-4.25,6.04-11.14,10.8s-16.73,7.38-16.73,7.38c-2.13-1.6-5.1-3.13-5.1-3.13,0,0-6.41-17.31-6.78-23.61-.18-3.05-.34-8.98-.76-15.02-.65-9.35-1.72-19.1-1.59-19.01Z"/><path class="j" d="M43.98,159.95c-8,9-21,23-25,35-.54,1.61-.87,2.67-1.37,4.22,0,0,.74,.92,3.6,1.89,1.38,.47,4.3,.92,6.97,1.13,3.79,.32,5.67,.22,5.67,.22,.28-.01,9.52-30.39,10.05-32.05,.32-1,.36-2.08,.49-3.34,.12-1.13,.07-2.36-.04-3.52-.15-1.75-.38-3.56-.38-3.56Z"/><g><path class="o" d="M151.53,141.02l17.24,10.18s2.22,22.78,2.22,31.78,8,28,9,32,4,23,4,29-1,17-2,21-11,14-27,19c-11.17,3.49-30,4-46,4s-38-2-58-8c-10.41-3.12-19-13.62-19-13.62-3-1.62-4-13.38-4-13.38-1-8,1-31,1-33s1-9,1-9c2,0,13-37,14-40.91s0-10.12,0-10.12c5.47-6.15,14.91-13,20.33-16.72l87.21-2.21Z"/><path class="c" d="M151.53,141.02l17.24,10.18s2.22,22.78,2.22,31.78,8,28,9,32,4,23,4,29-1,17-2,21-11,14-27,19c-11.17,3.49-30,4-46,4s-38-2-58-8c-10.41-3.12-19-13.62-19-13.62-3-1.62-4-13.38-4-13.38-1-8,1-31,1-33s1-9,1-9c2,0,13-37,14-40.91s0-10.12,0-10.12c5.47-6.15,14.91-13,20.33-16.72l87.21-2.21Z"/></g><path class="r" d="M95.98,254.28l-17-2.33s-1.03,6-1.52,9,2.11,8,2.11,8c0,0,6.41,3,10.41,3s17,1,17,1c0,0,5.86,0,13.43-1s18.57-3.4,20.57-4.2,3.7-.8,3.85-3.8,0-13.46,0-13.46c0,0-3.03,.44-5.85,1.46-11,4-43,2.65-43,2.33Z"/><path class="q" d="M181.98,264.98s-1.44,18.36-3.47,26.42c-1.85,7.33,2.75,11.79,2.75,11.79-.5,.5-3.67,12.28-17.75,19.11-14.77,7.17-27.99,9.51-46.48,9.19-3.83-.07-7.9-.25-12.25-.53-36.81-2.36-56.38-7.41-72.81-20.53-1.97-1.57-4.28-4.24-4.28-4.24,2.72,.23,6.84-8.74,7.87-13.8s-4.85-27.47-4.85-27.47c0,0,8.29,9.78,15.34,13.02,4.3,1.97,26.52,9.45,65.09,10.04,42.38,.64,52.28-6.8,59.93-11.67,4.23-2.69,7.47-5.93,9.21-8.23,1.4-1.86,1.7-3.09,1.7-3.09Z"/><path class="p" d="M91.12,348.8c1.25-4.71,2.46-10.13,2.86-11.31,1-3,2.36-7.15,2.36-7.15,0,0-20.41-1.43-33.33-5.01,0,0-1.61,4.85-2.32,6.51-.26,.59-.42,1.74-.52,2.98l-.19,.68"/><path class="n" d="M59.98,335.49s-5-1-7-1-2,2-2,2c0,0-1,0-6,2s-5,7-5,11,9,7,13,9,29,2,30,2,4-1,6-5c1.61-3.22,4.37-16.1,5-18,1-3,2.36-7.15,2.36-7.15,0,0-20.41-1.43-33.33-5.01,0,0-1.61,4.85-2.32,6.51-.26,.59-.42,1.74-.52,2.98l-.19,.68Z"/><path class="n" d="M128.17,331.31s.81,8.18,.81,11.18-.76,7.4-.38,8.7,1.38,3.3,2.38,4.3,8,4,12,4,28-2,32-6,9-12,8-14-6.23-7.31-9.11-7.65-6.99,2.21-7.89,2.65c-2,1-10,0-11-1l-.51-.3c-.36-3.26-.49-6.86-.49-6.86,0,0-6.73,2.27-12.84,3.48-6.11,1.2-12.96,1.51-12.96,1.51Z"/><path class="r" d="M91.12,348.8c-.76,2.87-1.53,5.47-2.14,6.69-2,4-5,5-6,5s-26,0-30-2-13-5-13-9,0-9,5-11,6-2,6-2c0,0,0-2,2-2s7,1,7,1v2.88s-1.03-.64-2.12-.06-2.51,1.09-1.67,3.09,7.41,6.04,12.42,6.63c16.02,1.88,23.36-2.38,23.36-2.38l-.84,3.15Z"/><path class="r" d="M128.98,342.49c0,3-.76,7.4-.38,8.7s1.38,3.3,2.38,4.3,8,4,12,4,28-2,32-6,9-12,8-14-6.23-7.31-9.11-7.65-6.99,2.21-7.89,2.65c-2,1-10,0-11-1l-.51-.3,.62,2.95s3.01,1.22,5.13,1.22,5.04-.52,5.18,1.55-.26,5.05-4.38,6.41c-4.57,1.51-15.42,3.58-17.81,3.3-12.29-1.46-14.24-6.13-14.24-6.13Z"/><path class="l" d="M43.98,159.95c-8,9-21,23-25,35-.54,1.61-.87,2.67-1.37,4.22,0,0,.74,.92,3.6,1.89,1.38,.47,4.3,.92,6.97,1.13,3.79,.32,5.67,.22,5.67,.22,.28-.01,9.52-30.39,10.05-32.05,.32-1,.36-2.08,.49-3.34,.12-1.13,.07-2.36-.04-3.52-.15-1.75-.38-3.56-.38-3.56Z"/><path class="g" d="M26.98,263.95s1,11,2,15c.73,2.91,3,8,1,9s-4.37,.67-7-3c-2.12-2.96-.55-8.55-1-9-1-1-1,1-1,1-3,9,5.01,15.83,7,16,2.64,.22,3.71,4.59,1.57,5-1.07,.21-7.57,1-13.57,0s-12-5-14-15.43c-.5-2.58-1-4.57,0-10.57s3-11,3-11"/><path class="f" d="M151.53,141.02l17.24,10.18,.22,2.78c0,1,2,20,2,29s8,28,9,32,4,23,4,29-1,17-2,21-11,14-27,19c-11.17,3.49-30,4-46,4s-38-2-58-8c-10.41-3.12-19-13.62-19-13.62-3-1.62-4-13.38-4-13.38-1-8,1-31,1-33s1-9,1-9c2,0,13-37,14-40.91,1-3.91,0-10.12,0-10.12,5.47-6.15,14.91-13,20.34-16.72l87.21-2.21Z"/><path class="f" d="M168.76,151.2c1.45,.97,2.86,2.02,3.68,2.76,5.54,5,21.54,18,27.54,25,3.57,4.17,8.17,10.51,10.89,14.83,0,0-4.25,6.04-11.14,10.8s-16.73,7.38-16.73,7.38c-2.13-1.6-5.1-3.13-5.1-3.13,0,0-6.41-17.31-6.78-23.61-.18-3.05-.34-8.98-.76-15.02-.65-9.35-1.72-19.1-1.59-19.01Z"/><path class="g" d="M206.26,261.62s3.72,3.34,3.72,7.34-.38,8.53-1,11c-1,4-11,11-12,11s-5.4,1-7.2,0-6.8-2.6-5.8-5.8,2-1.2,5-2.2,4.06-4.28,4-7,1-6-1-4-1,7-3,9-5,.79-5-.78v-8.3c0-1.92,.11-6.23,1-8.92,1-3,.88-2.72,1.88-3.72"/><path class="f" d="M30.71,264.92s5.88,22.41,4.85,27.47-5.15,14.03-7.87,13.8c0,0,2.31,2.67,4.28,4.24,16.43,13.12,36,18.17,72.81,20.53,25.32,1.62,40.89,0,58.72-8.66,14.08-6.83,17.25-18.61,17.75-19.11,0,0-4.59-4.45-2.75-11.79,2.03-8.06,3.36-25.09,3.36-25.09"/><path class="f" d="M95.98,331.49l-2,6c-.63,1.9-3.39,14.78-5,18-2,4-5,5-6,5s-26,0-30-2-13-5-13-9,0-9,5-11,6-2,6-2c0,0,0-2,2-2s7,1,7,1"/><path class="f" d="M62.98,325.49s-1.58,4.69-2.29,6.35-.71,7.65-.71,7.65"/><path class="f" d="M128.22,331.84s.76,7.65,.76,10.65-.76,7.4-.38,8.7,1.38,3.3,2.38,4.3,8,4,12,4,28-2,32-6,9-12,8-14-6.23-7.31-9.11-7.65-6.99,2.21-7.89,2.65c-2,1-10,0-11-1"/><path class="f" d="M153.98,326.33s.37,10.66,1.69,11.91,2.31,2.25,2.31,2.25"/><path class="f" d="M95.98,254.28l-17-2.33s-1.03,6-1.52,9,2.11,8,2.11,8c0,0,6.41,3,10.41,3s17,1,17,1c0,0,5.86,0,13.43-1s18.57-3.4,20.57-4.2,3.7-.8,3.85-3.8,0-13.46,0-13.46c0,0-3.03,.44-5.85,1.46-11,4-43,2.65-43,2.33Z"/><path class="f" d="M209.98,192.23s1.95-.32,1.98-.04-5.06,7.13-11.36,11.77c-6.3,4.64-17.6,7.97-17.6,7.97l1.68,4.54c1.32,3.05-.43,22.17-.29,25.2,.14,3.03,.81,16.8,.81,16.8,0,0,1.09,1.05,7.39,2.1,0,0,7.72,1.13,13.65,1.05,4.2-.35,8.4-10.5,9.45-15.75,.56-2.78,2.44-22.88,1.67-36.13-.69-11.82-3.93-17.05-5.42-17.55"/><path class="f" d="M27.7,263.62c-1.86,1.5-19.04-1.2-24.04-3.2-.62-.25,.06-1.98-.39-2.53-3.19-3.81-2.4-12.26-1.29-18.94,1.27-7.64,4.44-13.34,6.24-17.6,2.24-5.32,6.1-20.57,6.43-21.48s.83-1.24,2.52-1.2c0,0,1.32,1.94,5.66,2.81s10.97,1.11,11.03,.95-2.09,6.99-3.87,8.53c-1.37,1.18-2.05,24.98-2.25,39.36-.02,1.2,.79,6.39,.76,8.45-.02,1.11-.63,1.8-.66,2.69-.04,1.25-.08,2.13-.13,2.17Z"/><path class="k" d="M62.75,37.08s-5.01-.83-8.77,4.87c-3.97,6.02-10,17-11,31s-1,19-1,21-6,4-11,3-12.73-3.47-12.73-4.47c0,0,3.74,8.95,7.74,10.95s7.89,.32,7.89,.32c0,0-6.21,2.32-8.21,8.32s-.63,10.63-.63,10.63c0,0,2.15-2.58,6.21,.42s1.73,4.83,1.73,4.83c0,0,2.22-1,3.61,0s18.39,11,21.39,12,15,0,16,1,1,11.56,0,12.28c0,0,14-7.28,16-13.28,0,0,3,1,3,6s-1,9-1,9c0,0,12-7,13-11s0-7.72,0-7.72c0,0,0,6.72,3,8.72s11.78,9,16.39,10c0,0-.39-17,1.61-19,0,0,2,9,7,13s11,5,13,4c0,0-6-7-2-16,0,0,4.48,3.06,11.48,.06s15.52-7.06,15.52-7.06c0,0,6.78,.1,8-1s-7.94-17.52-7.94-21.52c0,0,6,3.42,10,2.42s7.2-5.17,7.2-5.17c0,0-7.67-.61-10.27-1.74-3.25-1.41-4-5-4-8s2-26-11-43c-13-17-18-21-21-22s-15-7-31-7c0,0-9-2-11-1s-8.5,5.5-8.5,5.5c0,0-9.11-15.45-8.11-26.45,0,0-3.39,6.95-3.39,12.95s2.61,13.5,2.61,13.5c0,0-9.61-.5-15.61,5.5-1.73,1.73-3.21,3.05-4.47,4.38"/><path class="o" d="M98.28,264.06c0-6.35,5.15-11.5,11.5-11.5s11.5,5.15,11.5,11.5-5.15,11.5-11.5,11.5-11.5-5.15-11.5-11.5Zm11.5,9.2c5.08,0,9.2-4.12,9.2-9.2s-4.12-9.2-9.2-9.2-9.2,4.12-9.2,9.2,4.12,9.2,9.2,9.2Z"/><path class="e" d="M124.98,45.95s9,9,13,23,5,30,5,34-3,27-3,27"/><path class="e" d="M82.98,37.95s-5,8-5,13-2,14-2,16-1,28,2,39,4,18,4,20,1,7,3,7"/><path class="e" d="M38.98,109.95c0,3-2,18-6,18"/><path class="e" d="M134.59,40.2s-15.18-9.61-19.18-11.61-11.3-6.08-16.18-4.58"/><path class="h" d="M62.51,39.17c-3.1,3.28-4.82,4.82-5.53,14.78-2,14,0,32,2,35"/></svg>